<?xml version="1.0" encoding="UTF-8" standalone="no"?>
<!DOCTYPE svg PUBLIC "-//W3C//DTD SVG 1.1//EN"
 "http://www.w3.org/Graphics/SVG/1.1/DTD/svg11.dtd">
<!-- Generated by graphviz version 2.28.0 (20111028.1807)
 -->
<!-- Title: G Pages: 1 -->
<svg width="308pt" height="421pt"
 viewBox="0.00 0.00 308.00 421.00" xmlns="http://www.w3.org/2000/svg" xmlns:xlink="http://www.w3.org/1999/xlink">
<g id="graph1" class="graph" transform="scale(1 1) rotate(0) translate(4 417)">
<title>G</title>
<polygon fill="white" stroke="white" points="-4,5 -4,-417 305,-417 305,5 -4,5"/>
<g id="graph2" class="cluster"><title>cluster_global</title>
<polyline fill="none" stroke="gray" points="212,-8 280,-8 "/>
<path fill="none" stroke="gray" d="M280,-8C286,-8 292,-14 292,-20"/>
<polyline fill="none" stroke="gray" points="292,-20 292,-393 "/>
<path fill="none" stroke="gray" d="M292,-393C292,-399 286,-405 280,-405"/>
<polyline fill="none" stroke="gray" points="280,-405 212,-405 "/>
<path fill="none" stroke="gray" d="M212,-405C206,-405 200,-399 200,-393"/>
<polyline fill="none" stroke="gray" points="200,-393 200,-20 "/>
<path fill="none" stroke="gray" d="M200,-20C200,-14 206,-8 212,-8"/>
<text text-anchor="middle" x="246" y="-390" font-family="Times,serif" font-size="11.00" fill="gray">global</text>
</g>
<!-- \\ACL -->
<g id="node2" class="node"><title>\\ACL</title>
<a xlink:href="controllers.acl.acl.html" xlink:title="ACL" target="_parent">
<polygon fill="none" stroke="black" points="273,-376 219,-376 219,-340 273,-340 273,-376"/>
<text text-anchor="middle" x="246" y="-353.6" font-family="Courier,monospace" font-size="11.00">ACL</text>
</a>
</g>
<!-- \\CI_controller -->
<g id="node10" class="node"><title>\\CI_controller</title>
<ellipse fill="none" stroke="black" cx="68" cy="-277" rx="65.9879" ry="18"/>
<text text-anchor="middle" x="68" y="-271.4" font-family="Times,serif" font-size="14.00" fill="gray">\CI_controller</text>
</g>
<!-- \\ACL&#45;&gt;\\CI_controller -->
<g id="edge3" class="edge"><title>\\ACL&#45;&gt;\\CI_controller</title>
<path fill="none" stroke="black" d="M218.651,-345.873C190.46,-332.899 145.305,-312.118 111.961,-296.772"/>
<polygon fill="none" stroke="black" points="113.007,-293.4 102.459,-292.399 110.08,-299.759 113.007,-293.4"/>
</g>
<!-- \\Perm -->
<g id="node3" class="node"><title>\\Perm</title>
<a xlink:href="controllers.acl.perm.html" xlink:title="Perm" target="_parent">
<polygon fill="none" stroke="black" points="273,-322 219,-322 219,-286 273,-286 273,-322"/>
<text text-anchor="middle" x="246" y="-299.6" font-family="Courier,monospace" font-size="11.00">Perm</text>
</a>
</g>
<!-- \\Perm&#45;&gt;\\CI_controller -->
<g id="edge5" class="edge"><title>\\Perm&#45;&gt;\\CI_controller</title>
<path fill="none" stroke="black" d="M218.651,-299.958C196.777,-296.602 164.69,-291.68 135.831,-287.253"/>
<polygon fill="none" stroke="black" points="136.196,-283.768 125.781,-285.711 135.134,-290.687 136.196,-283.768"/>
</g>
<!-- \\Role -->
<g id="node4" class="node"><title>\\Role</title>
<a xlink:href="controllers.acl.role.html" xlink:title="Role" target="_parent">
<polygon fill="none" stroke="black" points="273,-268 219,-268 219,-232 273,-232 273,-268"/>
<text text-anchor="middle" x="246" y="-245.6" font-family="Courier,monospace" font-size="11.00">Role</text>
</a>
</g>
<!-- \\Role&#45;&gt;\\CI_controller -->
<g id="edge7" class="edge"><title>\\Role&#45;&gt;\\CI_controller</title>
<path fill="none" stroke="black" d="M218.651,-254.042C196.777,-257.398 164.69,-262.32 135.831,-266.747"/>
<polygon fill="none" stroke="black" points="135.134,-263.313 125.781,-268.289 136.196,-270.232 135.134,-263.313"/>
</g>
<!-- \\User -->
<g id="node5" class="node"><title>\\User</title>
<a xlink:href="controllers.acl.user.html" xlink:title="User" target="_parent">
<polygon fill="none" stroke="black" points="273,-214 219,-214 219,-178 273,-178 273,-214"/>
<text text-anchor="middle" x="246" y="-191.6" font-family="Courier,monospace" font-size="11.00">User</text>
</a>
</g>
<!-- \\User&#45;&gt;\\CI_controller -->
<g id="edge9" class="edge"><title>\\User&#45;&gt;\\CI_controller</title>
<path fill="none" stroke="black" d="M218.651,-208.127C190.46,-221.101 145.305,-241.882 111.961,-257.228"/>
<polygon fill="none" stroke="black" points="110.08,-254.241 102.459,-261.601 113.007,-260.6 110.08,-254.241"/>
</g>
<!-- \\Welcome -->
<g id="node6" class="node"><title>\\Welcome</title>
<a xlink:href="controllers.welcome.html" xlink:title="Welcome" target="_parent">
<polygon fill="none" stroke="black" points="277.208,-160 214.792,-160 214.792,-124 277.208,-124 277.208,-160"/>
<text text-anchor="middle" x="246" y="-137.6" font-family="Courier,monospace" font-size="11.00">Welcome</text>
</a>
</g>
<!-- \\CI_Controller -->
<g id="node15" class="node"><title>\\CI_Controller</title>
<ellipse fill="none" stroke="black" cx="68" cy="-142" rx="67.7969" ry="18"/>
<text text-anchor="middle" x="68" y="-136.4" font-family="Times,serif" font-size="14.00" fill="gray">\CI_Controller</text>
</g>
<!-- \\Welcome&#45;&gt;\\CI_Controller -->
<g id="edge11" class="edge"><title>\\Welcome&#45;&gt;\\CI_Controller</title>
<path fill="none" stroke="black" d="M214.745,-142C195.825,-142 170.53,-142 146.328,-142"/>
<polygon fill="none" stroke="black" points="146.044,-138.5 136.044,-142 146.044,-145.5 146.044,-138.5"/>
</g>
<!-- \\MY_Loader -->
<g id="node7" class="node"><title>\\MY_Loader</title>
<a xlink:href="core.MY_Loader.html" xlink:title="MY_Loader" target="_parent">
<polygon fill="none" stroke="black" points="283.911,-106 208.089,-106 208.089,-70 283.911,-70 283.911,-106"/>
<text text-anchor="middle" x="246" y="-83.6" font-family="Courier,monospace" font-size="11.00">MY_Loader</text>
</a>
</g>
<!-- \\CI_Loader -->
<g id="node17" class="node"><title>\\CI_Loader</title>
<ellipse fill="none" stroke="black" cx="68" cy="-88" rx="55.598" ry="18"/>
<text text-anchor="middle" x="68" y="-82.4" font-family="Times,serif" font-size="14.00" fill="gray">\CI_Loader</text>
</g>
<!-- \\MY_Loader&#45;&gt;\\CI_Loader -->
<g id="edge13" class="edge"><title>\\MY_Loader&#45;&gt;\\CI_Loader</title>
<path fill="none" stroke="black" d="M208.105,-88C186.577,-88 158.804,-88 133.743,-88"/>
<polygon fill="none" stroke="black" points="133.562,-84.5001 123.562,-88 133.562,-91.5001 133.562,-84.5001"/>
</g>
<!-- \\ACL_model -->
<g id="node8" class="node"><title>\\ACL_model</title>
<a xlink:href="models.acl_model.html" xlink:title="ACL_model" target="_parent">
<polygon fill="none" stroke="black" points="283.911,-52 208.089,-52 208.089,-16 283.911,-16 283.911,-52"/>
<text text-anchor="middle" x="246" y="-29.6" font-family="Courier,monospace" font-size="11.00">ACL_model</text>
</a>
</g>
<!-- \\CI_model -->
<g id="node19" class="node"><title>\\CI_model</title>
<ellipse fill="none" stroke="black" cx="68" cy="-34" rx="52.1856" ry="18"/>
<text text-anchor="middle" x="68" y="-28.4" font-family="Times,serif" font-size="14.00" fill="gray">\CI_model</text>
</g>
<!-- \\ACL_model&#45;&gt;\\CI_model -->
<g id="edge15" class="edge"><title>\\ACL_model&#45;&gt;\\CI_model</title>
<path fill="none" stroke="black" d="M208.105,-34C185.68,-34 156.48,-34 130.627,-34"/>
<polygon fill="none" stroke="black" points="130.531,-30.5001 120.531,-34 130.531,-37.5001 130.531,-30.5001"/>
</g>
</g>
</svg>
