<?xml version="1.0" encoding="UTF-8" standalone="no"?>
<!DOCTYPE svg PUBLIC "-//W3C//DTD SVG 1.1//EN"
 "http://www.w3.org/Graphics/SVG/1.1/DTD/svg11.dtd">
<!-- Generated by graphviz version 2.28.0 (20111028.1807)
 -->
<!-- Title: G Pages: 1 -->
<svg width="308pt" height="205pt"
 viewBox="0.00 0.00 308.00 205.00" xmlns="http://www.w3.org/2000/svg" xmlns:xlink="http://www.w3.org/1999/xlink">
<g id="graph1" class="graph" transform="scale(1 1) rotate(0) translate(4 201)">
<title>G</title>
<polygon fill="white" stroke="white" points="-4,5 -4,-201 305,-201 305,5 -4,5"/>
<g id="graph2" class="cluster"><title>cluster_global</title>
<polyline fill="none" stroke="gray" points="212,-8 280,-8 "/>
<path fill="none" stroke="gray" d="M280,-8C286,-8 292,-14 292,-20"/>
<polyline fill="none" stroke="gray" points="292,-20 292,-177 "/>
<path fill="none" stroke="gray" d="M292,-177C292,-183 286,-189 280,-189"/>
<polyline fill="none" stroke="gray" points="280,-189 212,-189 "/>
<path fill="none" stroke="gray" d="M212,-189C206,-189 200,-183 200,-177"/>
<polyline fill="none" stroke="gray" points="200,-177 200,-20 "/>
<path fill="none" stroke="gray" d="M200,-20C200,-14 206,-8 212,-8"/>
<text text-anchor="middle" x="246" y="-174" font-family="Times,serif" font-size="11.00" fill="gray">global</text>
</g>
<!-- \\Welcome -->
<g id="node2" class="node"><title>\\Welcome</title>
<a xlink:href="controllers.welcome.html" xlink:title="Welcome" target="_parent">
<polygon fill="none" stroke="black" points="277.208,-160 214.792,-160 214.792,-124 277.208,-124 277.208,-160"/>
<text text-anchor="middle" x="246" y="-137.6" font-family="Courier,monospace" font-size="11.00">Welcome</text>
</a>
</g>
<!-- \\CI_Controller -->
<g id="node6" class="node"><title>\\CI_Controller</title>
<ellipse fill="none" stroke="black" cx="68" cy="-142" rx="67.7969" ry="18"/>
<text text-anchor="middle" x="68" y="-136.4" font-family="Times,serif" font-size="14.00" fill="gray">\CI_Controller</text>
</g>
<!-- \\Welcome&#45;&gt;\\CI_Controller -->
<g id="edge3" class="edge"><title>\\Welcome&#45;&gt;\\CI_Controller</title>
<path fill="none" stroke="black" d="M214.745,-142C195.825,-142 170.53,-142 146.328,-142"/>
<polygon fill="none" stroke="black" points="146.044,-138.5 136.044,-142 146.044,-145.5 146.044,-138.5"/>
</g>
<!-- \\ACL -->
<g id="node3" class="node"><title>\\ACL</title>
<a xlink:href="libraries.acl.html" xlink:title="ACL" target="_parent">
<polygon fill="none" stroke="black" points="273,-106 219,-106 219,-70 273,-70 273,-106"/>
<text text-anchor="middle" x="246" y="-83.6" font-family="Courier,monospace" font-size="11.00">ACL</text>
</a>
</g>
<!-- \\ACL_model -->
<g id="node4" class="node"><title>\\ACL_model</title>
<a xlink:href="models.acl_model.html" xlink:title="ACL_model" target="_parent">
<polygon fill="none" stroke="black" points="283.911,-52 208.089,-52 208.089,-16 283.911,-16 283.911,-52"/>
<text text-anchor="middle" x="246" y="-29.6" font-family="Courier,monospace" font-size="11.00">ACL_model</text>
</a>
</g>
<!-- \\CI_model -->
<g id="node8" class="node"><title>\\CI_model</title>
<ellipse fill="none" stroke="black" cx="68" cy="-34" rx="52.1856" ry="18"/>
<text text-anchor="middle" x="68" y="-28.4" font-family="Times,serif" font-size="14.00" fill="gray">\CI_model</text>
</g>
<!-- \\ACL_model&#45;&gt;\\CI_model -->
<g id="edge5" class="edge"><title>\\ACL_model&#45;&gt;\\CI_model</title>
<path fill="none" stroke="black" d="M208.105,-34C185.68,-34 156.48,-34 130.627,-34"/>
<polygon fill="none" stroke="black" points="130.531,-30.5001 120.531,-34 130.531,-37.5001 130.531,-30.5001"/>
</g>
</g>
</svg>
