<?xml version="1.0" encoding="UTF-8" standalone="no"?>
<!DOCTYPE svg PUBLIC "-//W3C//DTD SVG 1.1//EN"
 "http://www.w3.org/Graphics/SVG/1.1/DTD/svg11.dtd">
<!-- Generated by graphviz version 2.28.0 (20111028.1807)
 -->
<!-- Title: G Pages: 1 -->
<svg width="308pt" height="313pt"
 viewBox="0.00 0.00 308.00 313.00" xmlns="http://www.w3.org/2000/svg" xmlns:xlink="http://www.w3.org/1999/xlink">
<g id="graph1" class="graph" transform="scale(1 1) rotate(0) translate(4 309)">
<title>G</title>
<polygon fill="white" stroke="white" points="-4,5 -4,-309 305,-309 305,5 -4,5"/>
<g id="graph2" class="cluster"><title>cluster_global</title>
<polyline fill="none" stroke="gray" points="212,-8 280,-8 "/>
<path fill="none" stroke="gray" d="M280,-8C286,-8 292,-14 292,-20"/>
<polyline fill="none" stroke="gray" points="292,-20 292,-285 "/>
<path fill="none" stroke="gray" d="M292,-285C292,-291 286,-297 280,-297"/>
<polyline fill="none" stroke="gray" points="280,-297 212,-297 "/>
<path fill="none" stroke="gray" d="M212,-297C206,-297 200,-291 200,-285"/>
<polyline fill="none" stroke="gray" points="200,-285 200,-20 "/>
<path fill="none" stroke="gray" d="M200,-20C200,-14 206,-8 212,-8"/>
<text text-anchor="middle" x="246" y="-282" font-family="Times,serif" font-size="11.00" fill="gray">global</text>
</g>
<!-- \\Perm -->
<g id="node2" class="node"><title>\\Perm</title>
<a xlink:href="controllers.acl.perm.html" xlink:title="Perm" target="_parent">
<polygon fill="none" stroke="black" points="273,-268 219,-268 219,-232 273,-232 273,-268"/>
<text text-anchor="middle" x="246" y="-245.6" font-family="Courier,monospace" font-size="11.00">Perm</text>
</a>
</g>
<!-- \\CI_controller -->
<g id="node8" class="node"><title>\\CI_controller</title>
<ellipse fill="none" stroke="black" cx="68" cy="-196" rx="65.9879" ry="18"/>
<text text-anchor="middle" x="68" y="-190.4" font-family="Times,serif" font-size="14.00" fill="gray">\CI_controller</text>
</g>
<!-- \\Perm&#45;&gt;\\CI_controller -->
<g id="edge3" class="edge"><title>\\Perm&#45;&gt;\\CI_controller</title>
<path fill="none" stroke="black" d="M218.651,-241.916C193.275,-234.13 154.154,-222.127 122.274,-212.345"/>
<polygon fill="none" stroke="black" points="123.223,-208.976 112.636,-209.388 121.17,-215.668 123.223,-208.976"/>
</g>
<!-- \\Role -->
<g id="node3" class="node"><title>\\Role</title>
<a xlink:href="controllers.acl.role.html" xlink:title="Role" target="_parent">
<polygon fill="none" stroke="black" points="273,-214 219,-214 219,-178 273,-178 273,-214"/>
<text text-anchor="middle" x="246" y="-191.6" font-family="Courier,monospace" font-size="11.00">Role</text>
</a>
</g>
<!-- \\Role&#45;&gt;\\CI_controller -->
<g id="edge5" class="edge"><title>\\Role&#45;&gt;\\CI_controller</title>
<path fill="none" stroke="black" d="M218.651,-196C198.839,-196 170.648,-196 144.066,-196"/>
<polygon fill="none" stroke="black" points="143.978,-192.5 133.978,-196 143.978,-199.5 143.978,-192.5"/>
</g>
<!-- \\User -->
<g id="node4" class="node"><title>\\User</title>
<a xlink:href="controllers.acl.user.html" xlink:title="User" target="_parent">
<polygon fill="none" stroke="black" points="273,-160 219,-160 219,-124 273,-124 273,-160"/>
<text text-anchor="middle" x="246" y="-137.6" font-family="Courier,monospace" font-size="11.00">User</text>
</a>
</g>
<!-- \\User&#45;&gt;\\CI_controller -->
<g id="edge7" class="edge"><title>\\User&#45;&gt;\\CI_controller</title>
<path fill="none" stroke="black" d="M218.651,-150.084C193.275,-157.87 154.154,-169.873 122.274,-179.655"/>
<polygon fill="none" stroke="black" points="121.17,-176.332 112.636,-182.612 123.223,-183.024 121.17,-176.332"/>
</g>
<!-- \\Welcome -->
<g id="node5" class="node"><title>\\Welcome</title>
<a xlink:href="controllers.welcome.html" xlink:title="Welcome" target="_parent">
<polygon fill="none" stroke="black" points="277.208,-106 214.792,-106 214.792,-70 277.208,-70 277.208,-106"/>
<text text-anchor="middle" x="246" y="-83.6" font-family="Courier,monospace" font-size="11.00">Welcome</text>
</a>
</g>
<!-- \\CI_Controller -->
<g id="node12" class="node"><title>\\CI_Controller</title>
<ellipse fill="none" stroke="black" cx="68" cy="-88" rx="67.7969" ry="18"/>
<text text-anchor="middle" x="68" y="-82.4" font-family="Times,serif" font-size="14.00" fill="gray">\CI_Controller</text>
</g>
<!-- \\Welcome&#45;&gt;\\CI_Controller -->
<g id="edge9" class="edge"><title>\\Welcome&#45;&gt;\\CI_Controller</title>
<path fill="none" stroke="black" d="M214.745,-88C195.825,-88 170.53,-88 146.328,-88"/>
<polygon fill="none" stroke="black" points="146.044,-84.5001 136.044,-88 146.044,-91.5001 146.044,-84.5001"/>
</g>
<!-- \\ACL_model -->
<g id="node6" class="node"><title>\\ACL_model</title>
<a xlink:href="models.acl_model.html" xlink:title="ACL_model" target="_parent">
<polygon fill="none" stroke="black" points="283.911,-52 208.089,-52 208.089,-16 283.911,-16 283.911,-52"/>
<text text-anchor="middle" x="246" y="-29.6" font-family="Courier,monospace" font-size="11.00">ACL_model</text>
</a>
</g>
<!-- \\CI_model -->
<g id="node14" class="node"><title>\\CI_model</title>
<ellipse fill="none" stroke="black" cx="68" cy="-34" rx="52.1856" ry="18"/>
<text text-anchor="middle" x="68" y="-28.4" font-family="Times,serif" font-size="14.00" fill="gray">\CI_model</text>
</g>
<!-- \\ACL_model&#45;&gt;\\CI_model -->
<g id="edge11" class="edge"><title>\\ACL_model&#45;&gt;\\CI_model</title>
<path fill="none" stroke="black" d="M208.105,-34C185.68,-34 156.48,-34 130.627,-34"/>
<polygon fill="none" stroke="black" points="130.531,-30.5001 120.531,-34 130.531,-37.5001 130.531,-30.5001"/>
</g>
</g>
</svg>
